<?xml version="1.0" encoding="utf-8"?>
<!-- Generator: Adobe Illustrator 16.0.0, SVG Export Plug-In . SVG Version: 6.00 Build 0)  -->
<!DOCTYPE svg PUBLIC "-//W3C//DTD SVG 1.1//EN" "http://www.w3.org/Graphics/SVG/1.1/DTD/svg11.dtd">
<svg version="1.1" id="Layer_1" xmlns="http://www.w3.org/2000/svg" xmlns:xlink="http://www.w3.org/1999/xlink" x="0px" y="0px"
	  viewBox="0 0 3000 3000" enable-background="new 0 0 3000 3000" xml:space="preserve">
<g>
	<path fill="#E1734F" d="M2456.492,1423.44c-47.768-12.74-82.822-3.499-102.154,27.06c-11.189,17.292-18.678,36.071-22.48,56.354
		c-3.795,20.228-3.619,40.465,0.533,60.638c4.664,24.069,24.568,34.704,48.664,27.826c12.861-3.721,23.877-10.497,33.063-20.229
		c9.176-9.74,15.316-21.142,18.316-34.215C2442.959,1502.682,2448.59,1463.213,2456.492,1423.44z M2225.916,1786.824
		c4.746-20.92,8.799-39.698,12.564-55.255c35.139,1.395,67.969,5.447,100.752,3.269c52.154-3.443,80.275-34.003,85.557-86.425
		c0.877-9.223,2.623-18.437,4.543-31.565l-16.158,15.059c-14.217,13.405-30.881,22.296-49.938,26.653
		c-19.072,4.377-37.943,3.592-56.584-2.345c-28.279-7.719-44.73-27.669-52.717-55.514c-19.943-69.584,11.088-167.77,70.275-209.205
		c22.215-15.233,46.514-25.555,72.9-30.957c46.199-9.657,92.924-3.24,140.525,5.198c-5.891,44.361-11.494,87.31-17.551,130.259
		c-7.377,52.698-15.371,105.913-22.48,158.99c-11.348,84.91-66.242,137.7-152.059,143.886
		C2304.881,1802.834,2264.979,1798.8,2225.916,1786.824L2225.916,1786.824z"/>
	<path fill="#E17450" d="M1642.689,1657.609c7.035-51.471,13.617-99.082,20.035-146.758c2.445-18.52,5.445-37.169,6.055-55.791
		c0.961-27.06-15.391-39.072-41.555-31.611c-11.697,2.917-21.982,8.401-30.91,16.535c-8.891,8.106-15.334,17.854-19.332,29.22
		c-10.377,36.514-18.658,73.48-24.844,110.955c-4.145,20.994-5.363,42.515-8.809,63.573c-0.959,5.014-6.684,12.916-10.598,13.193
		c-21.271,1.311-42.618,0.609-66.75,0.609l50.594-371.029l-48.858-7.119c0.987-13.119,2.695-26.155,5.114-39.071
		c2.835-5.078,7.137-7.977,12.889-8.809c37.253-2.963,74.496-4.976,115.496-7.635l-24.834,175.664l15.898-13.599
		c13.441-11.512,28.684-19.72,45.727-24.558c16.998-4.884,34.262-5.964,51.775-3.286c41.961,5.28,63.232,36.356,57.676,83.386
		c-4.635,39.155-10.248,78.225-15.539,117.398c-3.582,27.235-7.986,54.296-10.885,81.614c-1.311,12.279-5.271,17.551-18.549,17.551
		C1683.1,1656.482,1664.385,1657.609,1642.689,1657.609z"/>
	<path fill="#E17450" d="M190.496,1742.297l50.593-104.455c3.961-8.336,8.079-16.506,13.701-27.991h-63.334
		c29.682-59.188,57.702-114.896,87.836-174.094h-66.583l9.398-68.874c6.85-0.536,12.565-1.33,18.372-1.403
		c30.734-0.527,36.015-4.58,44.436-35.148c2.834-10.349,5.373-20.726,8.346-30.983c17.588-59.133,57.186-92.684,118.34-98.574
		c26.331-2.52,52.689,0,83.857,0c-5.973,28.021-10.876,51.129-16.156,75.641c-30.734-2.446-62.993-13.35-87.218,13.6
		c-18.548,20.643-19.684,47.167-20.902,75.031h76.25c-2.825,29.774-8.189,54.794-31.639,75.53
		c-35.139,30.817-66.575,65.438-102.941,101.711h67.627l3.527,5.115l-192.375,196.216L190.496,1742.297z"/>
	<path fill="#E1734F" d="M1928.145,1525.863c-15.195,0.582-30.264,2.271-45.221,5.078c-14.318,3.489-27.586,9.324-39.781,17.578
		c-6.537,4.229-10.877,10.036-13.119,17.478c-2.217,7.441-1.781,14.697,1.338,21.807c6.592,16.211,21.438,16.332,35.758,14.642
		C1898.721,1598.67,1927.887,1563.005,1928.145,1525.863z M1935.262,1476.138c10.379-43.908-1.578-61.487-43.918-59.022
		c-29.516,1.736-58.598,9.999-88.797,15.547c0-14.578-0.525-32.784,0.527-50.953c0-3.518,5.973-8.771,10.201-9.741
		c45.184-15.658,91.346-19.591,138.521-11.863c50.945,9.325,71.598,38.905,64.563,90.468
		c-5.723,41.749-11.789,83.451-17.596,125.181c-0.869,6.509-0.777,13.166-1.219,20.985l45.578,6.851
		c0.887,1.846,1.93,3.074,1.83,4.117c-4.801,45.22-4.801,45.589-50.373,46.983c-24.613,0.813-49.291,0-75.381,0l3.176-35.11
		c-7.295,5.945-11.697,9.307-15.928,12.888c-22.129,19.361-47.887,29.046-77.273,29.092c-59.115,0.692-88.363-39.976-69.418-96.174
		c5.021-15.667,13.248-29.33,24.715-41.12c11.43-11.771,24.891-20.386,40.381-25.833c29.277-9.066,59.033-16.156,89.24-21.233
		C1921.109,1476.277,1928.172,1475.926,1935.262,1476.138L1935.262,1476.138z"/>
	<path fill="#E1734F" d="M2634.982,1467.709h100.41c6.73-31.261-5.373-50.16-32.256-55.69c-25.287-5.263-66.391,18.271-67.895,55.69
		H2634.982z M2625.039,1520.851c-9.656,48.58,11.346,78.354,56.824,78.087c31.613,0,63.178-7.035,96.607-11.079
		c0,12.399,0.711,28.759,0,44.962c-1.449,5.725-4.92,9.656-10.348,11.9c-45.119,15.926-91.207,19.813-138.338,11.586
		c-48.664-9.472-75.207-35.156-81.246-84.429c-8.078-65.873,5.697-127.175,54.371-175.673
		c38.748-38.554,86.701-48.811,139.039-36.893c40.861,9.251,65.346,40.216,69.398,83.433c0.102,1.347,0.102,2.649,0,3.979
		c-1.91,21.253,1.229,44.87-7.109,63.241c-11.17,24.504-38.119,8.78-57.525,10.092
		C2706.367,1522.945,2666.068,1520.851,2625.039,1520.851z"/>
	<path fill="#E1744F" d="M764.333,1471.744h101.889c6.768-29.857-3.49-49.347-28.205-55.33
		C805.352,1408.604,774.359,1431.343,764.333,1471.744z M908.126,1592.789c0,12.131,0.785,28.112,0,43.927
		c-1.496,5.613-4.911,9.528-10.293,11.772c-44.5,15.925-90.016,19.747-136.566,11.512c-56.307-10.294-83.718-43.918-84.512-107.538
		c-0.609-53.197,11.605-103.993,49.106-144.938c40.918-44.795,91.945-58.321,149.297-43.927
		c43.918,11.079,66.233,45.968,67.23,97.78c1.043,58.781-2.751,62.631-60.555,62.631c-33.44,0-67.009,0-100.568,0
		c-7.903,0-15.898,0.987-23.709,1.422c-13.618,38.721,5.89,74.209,45.58,75.548C837.841,1602.621,872.813,1596.131,908.126,1592.789
		z"/>
	<path fill="#E17450" d="M1044.276,1470.978h102.673c5.807-31.815-3.36-48.941-28.639-55.182
		C1087.132,1407.995,1058.162,1428.693,1044.276,1470.978z M1189.298,1591.21c0,12.39,0.692,28.381-0.433,43.928
		c-1.191,5.678-4.432,9.796-9.676,12.278c-49.199,15.741-99.331,22.241-150.1,8.79c-46.301-12.122-68.181-45.783-71.236-91.262
		c-3.961-57.278,7.819-111.287,46.116-155.814c39.892-46.282,91.714-60.971,150.727-46.744c9.122,1.985,17.708,5.364,25.703,10.202
		c7.986,4.792,14.984,10.801,20.994,17.957c6.001,7.137,10.673,15.113,14.024,23.801c3.36,8.742,5.197,17.754,5.521,27.124
		c0.083,22.674-1.089,45.304-3.537,67.876c-0.609,12.307-7.339,15.113-18.603,15.03c-48.932-0.563-97.863,0-146.768-0.563
		c-16.073,0-19.59,7.063-18.981,20.468c1.662,35.756,22.574,58.496,58.671,57.563
		C1124.459,1601.218,1156.172,1595.088,1189.298,1591.21z"/>
	<path fill="#E1734F" d="M1470.34,1366.347c-5.965,23.441-11.31,44.611-15.724,62.162c-24.742-1.274-47.5-5.586-69.196-2.447
		c-16.055,3.269-29.358,11.135-39.977,23.617c-11.595,14.3-19.646,30.337-24.105,48.183c-4.468,17.856-4.902,35.757-1.348,53.843
		c4.284,28.454,20.431,41.702,49.172,43.383c10.729,0.581,21.429,0.129,32.073-1.395c10.35-1.606,20.56-5.134,31.953-8.005
		c0,18.705,0.71,36.432-0.517,54.083c-1.58,5.707-5.143,9.584-10.618,11.698c-39.024,11.697-78.521,16.185-118.515,4.837
		c-16.175-3.711-29.968-11.614-41.324-23.735c-11.319-12.159-18.271-26.451-20.847-42.839c-11.522-64.405,0-124.996,42.773-175.673
		C1332.879,1356.497,1397.7,1350.191,1470.34,1366.347z"/>
	<path fill="#E1734F" d="M600.883,1406.241l-1.08-1.229l-1.053,1.099l1.597,1.227L600.883,1406.241z M569.151,1657.609h-74.302
		c10.442-77.46,20.829-153.968,31.437-232.849l-48.904-7.118c1.662-13.793,2.446-26.331,5.161-38.721
		c1.698-4.976,5.105-8.162,10.202-9.482c37.151-2.65,74.395-4.395,112.866-6.398c-2.105,14.929-3.675,26.331-5.254,36.976
		c26.34-24.152,53.4-45.248,93.782-40.863c-4.459,24.577-8.78,48.036-12.972,70.896c-1.957,1.126-3.185,2.456-4.228,2.271
		c-48.673-5.013-71.329,23.1-80.285,61.469c-10.358,43.927-15.63,89.536-23.007,134.321
		C572.069,1637.842,571.081,1647.158,569.151,1657.609z"/>
	<path fill="#E1744F" d="M2103.014,1421.344l-48.709-6.592c1.662-14.135,2.52-27.854,5.42-41.204
		c0.719-3.351,7.754-7.284,12.039-7.635c35.941-2.373,71.863-4.053,110.492-5.982c-2.623,16.636-4.811,30.042-7.82,48.063
		c26.359-32.434,51.998-56.493,95.656-50.584c-4.201,23.967-8.779,47.26-12.371,70.239c-64.469,8.808-85.639,32.94-94.688,105.424
		c-5.012,40.326-11.078,80.533-16.783,121.627h-75.004C2081.891,1576.539,2092.23,1500.022,2103.014,1421.344z"/>
	<path fill="#E17450" d="M191.373,1743.34l-2.797,2.281c0.702-1.063,1.311-2.188,1.92-3.324L191.373,1743.34z"/>
</g>
</svg>
